# xmcd
#
# Track frame offsets:
#	150
#	20495
#	40728
#	60423
#	79711
#	99332
#	119377
#	141754
#	164436
#	186699
#	204750
#	222287
#	250819
#	276884
#
# Disc length: 3934 seconds
#
# Revision: 1
# Processed by: cddbd v1.5.2PL0 Copyright (c) Steve Scherf et al.
# Submitted via: audiograbber 1.83.01
#
DISCID=c20f5c0e
DTITLE=Toni Braxton - Breathe Again - The Best
DYEAR=2009
DGENRE=Pop
TTITLE0=Breathe Again
TTITLE1=Un-Break My Heart
TTITLE2=He Wasn't Man Enough
TTITLE3=I Dont't Want to
TTITLE4=How Could an Angel Break My Heart
TTITLE5=You're Makin' Me High
TTITLE6=Love Shoulda Brought You Home
TTITLE7=Another Sad Love Song
TTITLE8=You Mean the World to Me
TTITLE9=A Better Man
TTITLE10=I Belong to You
TTITLE11=Seven Whole Days
TTITLE12=How Many Ways [R. Kelly Remix]
TTITLE13=Give U My Heart [feat. Babyface]
EXTD=
EXTT0=
EXTT1=
EXTT2=
EXTT3=
EXTT4=
EXTT5=
EXTT6=
EXTT7=
EXTT8=
EXTT9=
EXTT10=
EXTT11=
EXTT12=
EXTT13=
PLAYORDER=
